<?xml version="1.0" encoding="utf-8"?>
<svg xmlns="http://www.w3.org/2000/svg" style="margin: auto; background: rgb(255, 255, 255) none repeat scroll 0% 0%; display: block; shape-rendering: auto;" width="280" height="65" preserveAspectRatio="xMidYMid">
<style type="text/css">
  text {
    text-anchor: middle; font-size: 51px; opacity: 0;
  }
</style>
<g style="transform-origin: 140px 32.5px 0px; transform: scale(0.6375);">
<g transform="translate(140,32.5)">
  <g transform="translate(0,0)"><g class="path" style="opacity: 1; transform-origin: -144.52px 5.91763px 0px; animation: 1s linear -0.5775s infinite normal forwards running fade-ac284481-ba15-46b0-8ad0-900b7ab29597;"><path d="M16.08 17.60L5.76 15.44L14-3.04L8.08-19.20L0-38.64L10.64-40.64L15.76-23.60L18.40-15.52L19.44-15.52L21.36-21.36L27.12-40.72L36.96-39.52L22.80-2.32L16.08 17.60" fill="#121212" stroke="none" stroke-width="none" transform="translate(-163.00001525878906,17.477626304626465)" style="fill: rgb(18, 18, 18);"></path></g><g class="path" style="opacity: 1; transform-origin: -106.52px -2.68237px 0px; animation: 1s linear -0.495s infinite normal forwards running fade-ac284481-ba15-46b0-8ad0-900b7ab29597;"><path d="M39.44-16.72L39.44-16.72Q39.44-26.96 44.96-34.08L44.96-34.08L44.96-34.08Q50.48-41.20 57.88-41.20L57.88-41.20L57.88-41.20Q65.28-41.20 69.40-36.40L69.40-36.40L69.40-36.40Q73.52-31.60 73.52-23.68L73.52-23.68L73.52-23.68Q73.52-13.12 68.20-6.12L68.20-6.12L68.20-6.12Q62.88 0.88 54.80 0.88L54.80 0.88L54.80 0.88Q48.16 0.88 43.80-4.12L43.80-4.12L43.80-4.12Q39.44-9.12 39.44-16.72L39.44-16.72zM64.56-19.52L64.56-19.52L64.56-19.52Q64.56-31.12 56.64-31.12L56.64-31.12L56.64-31.12Q48.40-31.12 48.40-20.24L48.40-20.24L48.40-20.24Q48.40-14.56 50.72-11.36L50.72-11.36L50.72-11.36Q53.04-8.16 56.84-8.16L56.84-8.16L56.84-8.16Q60.64-8.16 62.60-11.08L62.60-11.08L62.60-11.08Q64.56-14 64.56-19.52" fill="#121212" stroke="none" stroke-width="none" transform="translate(-163.00001525878906,17.477626304626465)" style="fill: rgb(18, 18, 18);"></path></g><g class="path" style="opacity: 1; transform-origin: -45.52px -2.76237px 0px; animation: 1s linear -0.4125s infinite normal forwards running fade-ac284481-ba15-46b0-8ad0-900b7ab29597;"><path d="M125.60-23.04L128.40-10L129.44-10L132-20.96L136.16-40.72L145.92-39.52L140.08-19.68L135.20-0.96L122.08 0.24L117.68-19.20L117.28-20.48L111.92-0.96L99.20 0.24L94.56-19.20L89.04-38.64L99.52-40.64L102.80-23.04L105.68-10L106.72-10L113.60-32.80L111.92-38.64L122.24-40.64L125.60-23.04" fill="#121212" stroke="none" stroke-width="none" transform="translate(-163.00001525878906,17.477626304626465)" style="fill: rgb(18, 18, 18);"></path></g><g class="path" style="opacity: 1; transform-origin: 2.11998px -3.00237px 0px; animation: 1s linear -0.33s infinite normal forwards running fade-ac284481-ba15-46b0-8ad0-900b7ab29597;"><path d="M159.20 0L159.20 0Q154.48 0 151.48-3L151.48-3L151.48-3Q148.48-6 148.48-11.08L148.48-11.08L148.48-11.08Q148.48-16.16 153.12-19.88L153.12-19.88L153.12-19.88Q157.76-23.60 164.40-23.60L164.40-23.60L169.84-23.60L169.84-24.96L169.84-24.96Q169.84-28.88 168.24-30.32L168.24-30.32L168.24-30.32Q166.64-31.76 162.24-31.76L162.24-31.76L162.24-31.76Q160.40-31.76 157.88-31L157.88-31L157.88-31Q155.36-30.24 152.24-28.64L152.24-28.64L149.92-34.96L149.92-34.96Q153.36-37.36 158.28-39.28L158.28-39.28L158.28-39.28Q163.20-41.20 166.40-41.20L166.40-41.20L166.40-41.20Q178.96-41.20 178.96-29.04L178.96-29.04L178.96-13.36L178.96-13.36Q178.96-8.88 181.76-3.36L181.76-3.36L173.28 0.24L173.28 0.24Q171.28-3.60 170.32-6.64L170.32-6.64L170.32-6.64Q165.92 0 159.20 0L159.20 0zM162.56-8.16L162.56-8.16L162.56-8.16Q165.76-8.16 169.84-11.44L169.84-11.44L169.84-16.80L169.84-16.80Q165.60-17.76 162.96-17.76L162.96-17.76L162.96-17.76Q157.92-17.76 157.92-13.28L157.92-13.28L157.92-13.28Q157.92-10.96 159.20-9.56L159.20-9.56L159.20-9.56Q160.48-8.16 162.56-8.16" fill="#121212" stroke="none" stroke-width="none" transform="translate(-163.00001525878906,17.477626304626465)" style="fill: rgb(18, 18, 18);"></path></g><g class="path" style="opacity: 1; transform-origin: 36.28px -2.68237px 0px; animation: 1s linear -0.2475s infinite normal forwards running fade-ac284481-ba15-46b0-8ad0-900b7ab29597;"><path d="M200.80-7.44L200.80-7.44L200.80-7.44Q204.96-7.44 204.96-11.12L204.96-11.12L204.96-11.12Q204.96-12.40 203.16-13.52L203.16-13.52L203.16-13.52Q201.36-14.64 198.76-15.76L198.76-15.76L198.76-15.76Q196.16-16.88 193.56-18.28L193.56-18.28L193.56-18.28Q190.96-19.68 189.16-22.16L189.16-22.16L189.16-22.16Q187.36-24.64 187.36-27.84L187.36-27.84L187.36-27.84Q187.36-33.20 192.08-37.20L192.08-37.20L192.08-37.20Q196.80-41.20 202.96-41.20L202.96-41.20L202.96-41.20Q205.84-41.20 208.60-40.52L208.60-40.52L208.60-40.52Q211.36-39.84 213.92-38.40L213.92-38.40L208.56-28.64L208.56-28.64Q208-29.12 207.12-29.84L207.12-29.84L207.12-29.84Q206.24-30.56 203.80-31.72L203.80-31.72L203.80-31.72Q201.36-32.88 199.48-32.88L199.48-32.88L199.48-32.88Q197.60-32.88 196.60-32.04L196.60-32.04L196.60-32.04Q195.60-31.20 195.60-29.72L195.60-29.72L195.60-29.72Q195.60-28.24 198.36-26.76L198.36-26.76L198.36-26.76Q201.12-25.28 204.40-24.04L204.40-24.04L204.40-24.04Q207.68-22.80 210.44-19.96L210.44-19.96L210.44-19.96Q213.20-17.12 213.20-13.20L213.20-13.20L213.20-13.20Q213.20-7.60 208.60-3.36L208.60-3.36L208.60-3.36Q204 0.88 198 0.88L198 0.88L198 0.88Q194.16 0.88 190.84-0.80L190.84-0.80L190.84-0.80Q187.52-2.48 186.08-4.16L186.08-4.16L184.64-5.84L190.96-13.20L190.96-13.20Q191.44-12.56 192.32-11.60L192.32-11.60L192.32-11.60Q193.20-10.64 195.80-9.04L195.80-9.04L195.80-9.04Q198.40-7.44 200.80-7.44" fill="#121212" stroke="none" stroke-width="none" transform="translate(-163.00001525878906,17.477626304626465)" style="fill: rgb(18, 18, 18);"></path></g><g class="path" style="opacity: 1; transform-origin: 67.8px -2.68237px 0px; animation: 1s linear -0.165s infinite normal forwards running fade-ac284481-ba15-46b0-8ad0-900b7ab29597;"><path d="M232.32-7.44L232.32-7.44L232.32-7.44Q236.48-7.44 236.48-11.12L236.48-11.12L236.48-11.12Q236.48-12.40 234.68-13.52L234.68-13.52L234.68-13.52Q232.88-14.64 230.28-15.76L230.28-15.76L230.28-15.76Q227.68-16.88 225.08-18.28L225.08-18.28L225.08-18.28Q222.48-19.68 220.68-22.16L220.68-22.16L220.68-22.16Q218.88-24.64 218.88-27.84L218.88-27.84L218.88-27.84Q218.88-33.20 223.60-37.20L223.60-37.20L223.60-37.20Q228.32-41.20 234.48-41.20L234.48-41.20L234.48-41.20Q237.36-41.20 240.12-40.52L240.12-40.52L240.12-40.52Q242.88-39.84 245.44-38.40L245.44-38.40L240.08-28.64L240.08-28.64Q239.52-29.12 238.64-29.84L238.64-29.84L238.64-29.84Q237.76-30.56 235.32-31.72L235.32-31.72L235.32-31.72Q232.88-32.88 231.00-32.88L231.00-32.88L231.00-32.88Q229.12-32.88 228.12-32.04L228.12-32.04L228.12-32.04Q227.12-31.20 227.12-29.72L227.12-29.72L227.12-29.72Q227.12-28.24 229.88-26.76L229.88-26.76L229.88-26.76Q232.64-25.28 235.92-24.04L235.92-24.04L235.92-24.04Q239.20-22.80 241.96-19.96L241.96-19.96L241.96-19.96Q244.72-17.12 244.72-13.20L244.72-13.20L244.72-13.20Q244.72-7.60 240.12-3.36L240.12-3.36L240.12-3.36Q235.52 0.88 229.52 0.88L229.52 0.88L229.52 0.88Q225.68 0.88 222.36-0.80L222.36-0.80L222.36-0.80Q219.04-2.48 217.60-4.16L217.60-4.16L216.16-5.84L222.48-13.20L222.48-13.20Q222.96-12.56 223.84-11.60L223.84-11.60L223.84-11.60Q224.72-10.64 227.32-9.04L227.32-9.04L227.32-9.04Q229.92-7.44 232.32-7.44" fill="#121212" stroke="none" stroke-width="none" transform="translate(-163.00001525878906,17.477626304626465)" style="fill: rgb(18, 18, 18);"></path></g><g class="path" style="opacity: 1; transform-origin: 105.32px -2.76237px 0px; animation: 1s linear -0.0825s infinite normal forwards running fade-ac284481-ba15-46b0-8ad0-900b7ab29597;"><path d="M261.36 0L261.36 0L261.36 0Q257.04 0 254.36-2.84L254.36-2.84L254.36-2.84Q251.68-5.68 251.68-10.32L251.68-10.32L252.16-19.52L251.28-38.72L262.00-40.72L260.96-16.40L260.96-16.40Q260.96-12.96 262.20-11.36L262.20-11.36L262.20-11.36Q263.44-9.76 266.16-9.76L266.16-9.76L266.16-9.76Q268.88-9.76 273.68-12.48L273.68-12.48L273.68-17.28L272.80-38.32L283.60-40.32L282.64-20.32L282.72-13.76L282.72-13.76Q282.72-8.64 285.36-3.44L285.36-3.44L277.04 0.24L277.04 0.24Q274.40-4.96 273.84-8.08L273.84-8.08L273.84-8.08Q266.64 0 261.36 0" fill="#121212" stroke="none" stroke-width="none" transform="translate(-163.00001525878906,17.477626304626465)" style="fill: rgb(18, 18, 18);"></path></g><g class="path" style="opacity: 1; transform-origin: 145.96px 5.63763px 0px; animation: 1s linear 0s infinite normal forwards running fade-ac284481-ba15-46b0-8ad0-900b7ab29597;"><path d="M313.92-40.40L313.92-40.40L313.92-40.40Q319.04-40.40 322.52-35.92L322.52-35.92L322.52-35.92Q326-31.44 326-23.84L326-23.84L326-23.84Q326-13.20 320.52-6.60L320.52-6.60L320.52-6.60Q315.04 0 306.88 0L306.88 0L306.88 0Q305.20 0 303.12-0.24L303.12-0.24L303.52 15.04L292.56 17.04L293.60-19.44L293.68-19.44L293.68-19.44Q293.36-30.16 291.92-38.64L291.92-38.64L301.60-40.72L301.60-40.72Q302.08-36.48 302.40-32.32L302.40-32.32L302.40-32.32Q302.56-32.72 304.04-34.52L304.04-34.52L304.04-34.52Q305.52-36.32 308.40-38.36L308.40-38.36L308.40-38.36Q311.28-40.40 313.92-40.40zM310.80-30L310.80-30L310.80-30Q306.56-30 302.56-27.68L302.56-27.68L302.56-20.80L302.88-9.36L302.88-9.36Q307.20-8.64 309.44-8.64L309.44-8.64L309.44-8.64Q317.12-8.64 317.12-19.32L317.12-19.32L317.12-19.32Q317.12-30 310.80-30" fill="#121212" stroke="none" stroke-width="none" transform="translate(-163.00001525878906,17.477626304626465)" style="fill: rgb(18, 18, 18);"></path></g></g>
</g>
</g>
<style id="fade-ac284481-ba15-46b0-8ad0-900b7ab29597" data-anikit="">@keyframes fade-ac284481-ba15-46b0-8ad0-900b7ab29597
{
  0% {
    animation-timing-function: cubic-bezier(0.2057,0.573,0.3723,0.9184);
    opacity: 1;
  }
  100% {
    opacity: 0;
  }
}</style></svg>